<mxfile host="Electron" agent="Mozilla/5.0 (Windows NT 10.0; Win64; x64) AppleWebKit/537.36 (KHTML, like Gecko) draw.io/26.0.16 Chrome/132.0.6834.196 Electron/34.2.0 Safari/537.36" version="26.0.16">
  <diagram name="Page-1" id="YPAZWXuc08tB3igoBrNE">
    <mxGraphModel dx="1706" dy="1401" grid="1" gridSize="10" guides="1" tooltips="1" connect="1" arrows="1" fold="1" page="1" pageScale="1" pageWidth="1700" pageHeight="1100" math="0" shadow="0">
      <root>
        <mxCell id="0" />
        <mxCell id="1" parent="0" />
        <mxCell id="l_vwWviAztrHwJhMkyFg-61" value="" style="rounded=1;whiteSpace=wrap;html=1;strokeWidth=1;" parent="1" vertex="1">
          <mxGeometry x="409" y="405" width="320" height="380" as="geometry" />
        </mxCell>
        <mxCell id="l_vwWviAztrHwJhMkyFg-59" value="" style="rounded=0;whiteSpace=wrap;html=1;fillColor=#f5f5f5;strokeColor=#666666;gradientColor=#b3b3b3;shadow=1;strokeWidth=1;" parent="1" vertex="1">
          <mxGeometry x="451" y="465" width="260" height="255" as="geometry" />
        </mxCell>
        <mxCell id="l_vwWviAztrHwJhMkyFg-58" value="" style="rounded=0;whiteSpace=wrap;html=1;fillColor=#f5f5f5;strokeColor=#666666;gradientColor=#b3b3b3;shadow=1;strokeWidth=1;" parent="1" vertex="1">
          <mxGeometry x="441" y="475" width="260" height="255" as="geometry" />
        </mxCell>
        <mxCell id="l_vwWviAztrHwJhMkyFg-1" value="" style="rounded=0;whiteSpace=wrap;html=1;shadow=1;strokeWidth=2;" parent="1" vertex="1">
          <mxGeometry x="445" y="70" width="250" height="130" as="geometry" />
        </mxCell>
        <mxCell id="l_vwWviAztrHwJhMkyFg-2" value="&lt;font style=&quot;font-size: 19px;&quot;&gt;&lt;b&gt;Driver Program&lt;/b&gt;&lt;/font&gt;" style="text;html=1;align=center;verticalAlign=middle;whiteSpace=wrap;rounded=0;shadow=1;" parent="1" vertex="1">
          <mxGeometry x="445" y="70" width="250" height="40" as="geometry" />
        </mxCell>
        <mxCell id="l_vwWviAztrHwJhMkyFg-3" value="&lt;font style=&quot;font-size: 17px;&quot;&gt;&lt;b&gt;Spark Context&lt;/b&gt;&lt;/font&gt;" style="rounded=0;whiteSpace=wrap;html=1;fillColor=#b1ddf0;strokeColor=#10739e;shadow=1;" parent="1" vertex="1">
          <mxGeometry x="491.5" y="122" width="155" height="60" as="geometry" />
        </mxCell>
        <mxCell id="l_vwWviAztrHwJhMkyFg-4" value="&lt;font style=&quot;font-size: 18px;&quot;&gt;&lt;b&gt;Cluster Manager&lt;/b&gt;&lt;/font&gt;" style="rounded=0;whiteSpace=wrap;html=1;fillColor=#6d8764;strokeColor=#3A5431;fontColor=#ffffff;shadow=1;" parent="1" vertex="1">
          <mxGeometry x="485" y="250" width="170" height="75" as="geometry" />
        </mxCell>
        <mxCell id="l_vwWviAztrHwJhMkyFg-14" value="&lt;font style=&quot;font-size: 18px;&quot;&gt;&lt;b&gt;Worker Node&lt;/b&gt;&lt;/font&gt;" style="text;html=1;align=left;verticalAlign=middle;whiteSpace=wrap;rounded=0;shadow=1;strokeWidth=1;" parent="1" vertex="1">
          <mxGeometry x="511" y="411" width="120" height="40" as="geometry" />
        </mxCell>
        <mxCell id="l_vwWviAztrHwJhMkyFg-15" value="" style="rounded=0;whiteSpace=wrap;html=1;fillColor=#f5f5f5;strokeColor=#666666;gradientColor=#b3b3b3;shadow=1;strokeWidth=1;" parent="1" vertex="1">
          <mxGeometry x="429" y="485" width="260" height="255" as="geometry" />
        </mxCell>
        <mxCell id="l_vwWviAztrHwJhMkyFg-16" value="&lt;font style=&quot;font-size: 17px;&quot;&gt;&lt;b&gt;Executor&lt;/b&gt;&lt;/font&gt;" style="text;html=1;align=center;verticalAlign=middle;whiteSpace=wrap;rounded=0;shadow=1;strokeWidth=1;" parent="1" vertex="1">
          <mxGeometry x="484" y="500" width="150" height="30" as="geometry" />
        </mxCell>
        <mxCell id="l_vwWviAztrHwJhMkyFg-17" value="&lt;font style=&quot;font-size: 17px;&quot;&gt;Cache&lt;/font&gt;" style="rounded=0;whiteSpace=wrap;html=1;fillColor=#647687;strokeColor=#314354;fontColor=#ffffff;shadow=1;strokeWidth=1;" parent="1" vertex="1">
          <mxGeometry x="453" y="541" width="216" height="45" as="geometry" />
        </mxCell>
        <mxCell id="l_vwWviAztrHwJhMkyFg-18" value="&lt;font style=&quot;font-size: 16px;&quot;&gt;Task&lt;/font&gt;" style="rounded=0;whiteSpace=wrap;html=1;fillColor=#647687;strokeColor=#314354;fontColor=#ffffff;shadow=1;strokeWidth=1;" parent="1" vertex="1">
          <mxGeometry x="453" y="602" width="100" height="50" as="geometry" />
        </mxCell>
        <mxCell id="l_vwWviAztrHwJhMkyFg-19" value="&lt;font style=&quot;font-size: 16px;&quot;&gt;Task&lt;/font&gt;" style="rounded=0;whiteSpace=wrap;html=1;fillColor=#647687;strokeColor=#314354;fontColor=#ffffff;shadow=1;strokeWidth=1;" parent="1" vertex="1">
          <mxGeometry x="569" y="602" width="100" height="50" as="geometry" />
        </mxCell>
        <mxCell id="l_vwWviAztrHwJhMkyFg-24" value="&lt;ul&gt;&lt;li&gt;&lt;span style=&quot;font-size: 13px; background-color: transparent; color: light-dark(rgb(0, 0, 0), rgb(255, 255, 255));&quot;&gt;Each Executor is a JVM instance.&lt;/span&gt;&lt;/li&gt;&lt;li&gt;&lt;b&gt;&lt;font style=&quot;color: rgb(204, 0, 102);&quot;&gt;&lt;span style=&quot;font-size: 13px; background-color: transparent;&quot;&gt;Number of cores in each executor determines the number of tasks that can run in prallel within the exeutor.&amp;nbsp;&lt;/span&gt;Cores or slots are the number of threads you can use for parallel processing.&lt;/font&gt;&lt;/b&gt;&lt;/li&gt;&lt;li&gt;&lt;span style=&quot;background-color: transparent; color: light-dark(rgb(0, 0, 0), rgb(255, 255, 255));&quot;&gt;Research has found that 2-5 cores per executor is the right range to get optimal performance.&lt;/span&gt;&lt;/li&gt;&lt;li&gt;&lt;span style=&quot;background-color: transparent;&quot;&gt;&lt;font style=&quot;color: light-dark(rgb(204, 0, 102), rgb(255, 255, 255));&quot;&gt;&lt;b&gt;Cores are not the same as physical CPU cores.&lt;/b&gt;&lt;/font&gt;&lt;/span&gt;&lt;/li&gt;&lt;/ul&gt;" style="text;html=1;align=left;verticalAlign=middle;whiteSpace=wrap;rounded=0;strokeColor=default;shadow=1;strokeWidth=1;" parent="1" vertex="1">
          <mxGeometry x="600" y="960" width="510" height="133" as="geometry" />
        </mxCell>
        <mxCell id="l_vwWviAztrHwJhMkyFg-27" value="&lt;ul&gt;&lt;li&gt;&lt;font style=&quot;font-size: 13px;&quot;&gt;Every Spark application will have at least one job.&lt;/font&gt;&lt;/li&gt;&lt;li&gt;&lt;font style=&quot;font-size: 13px;&quot;&gt;Each job will have at least one stage.&lt;/font&gt;&lt;/li&gt;&lt;li&gt;&lt;font style=&quot;font-size: 13px;&quot;&gt;Every stage will have at least one task.&lt;/font&gt;&lt;/li&gt;&lt;li&gt;&lt;font style=&quot;font-size: 13px;&quot;&gt;Every task in a stage executes the same set of instructions.&lt;/font&gt;&lt;/li&gt;&lt;li&gt;&lt;font style=&quot;font-size: 13px;&quot;&gt;&lt;font style=&quot;color: rgb(204, 0, 102);&quot;&gt;&lt;b style=&quot;&quot;&gt;A Job is created when there is an action.&lt;/b&gt;&lt;/font&gt; If 2 actions, then 2 jobs.&lt;/font&gt;&lt;/li&gt;&lt;li&gt;&lt;font style=&quot;color: rgb(204, 0, 102); font-size: 13px;&quot;&gt;&lt;font style=&quot;color: rgb(255, 0, 128);&quot;&gt;&lt;b style=&quot;&quot;&gt;A stage is created every time Spark has to perform a shuffle&lt;/b&gt;&lt;/font&gt;.&lt;/font&gt;&lt;/li&gt;&lt;li&gt;&lt;font style=&quot;font-size: 13px;&quot;&gt;&lt;font style=&quot;color: rgb(204, 0, 102);&quot;&gt;&lt;b&gt;A task corresponds to the partitions being processed in a stage.&lt;/b&gt;&lt;/font&gt; If a stage is processing 5 partitions, there will be 5 tasks.&lt;/font&gt;&lt;/li&gt;&lt;/ul&gt;" style="text;html=1;align=left;verticalAlign=middle;whiteSpace=wrap;rounded=0;strokeColor=default;shadow=1;" parent="1" vertex="1">
          <mxGeometry x="15" y="960" width="525" height="133" as="geometry" />
        </mxCell>
        <mxCell id="l_vwWviAztrHwJhMkyFg-28" value="" style="rounded=0;whiteSpace=wrap;html=1;" parent="1" vertex="1">
          <mxGeometry x="312" y="1151" width="450" height="100" as="geometry" />
        </mxCell>
        <mxCell id="l_vwWviAztrHwJhMkyFg-29" value="&lt;span style=&quot;font-size: 12px;&quot;&gt;Job&lt;/span&gt;&lt;br&gt;&lt;div style=&quot;font-size: 12px;&quot;&gt;&lt;font style=&quot;font-size: 8px;&quot;&gt;(action)&lt;/font&gt;&lt;/div&gt;" style="text;html=1;align=center;verticalAlign=middle;whiteSpace=wrap;rounded=0;fontStyle=1;fontSize=14;fillColor=#cce5ff;strokeColor=#36393d;" parent="1" vertex="1">
          <mxGeometry x="312" y="1152" width="450" height="30" as="geometry" />
        </mxCell>
        <mxCell id="l_vwWviAztrHwJhMkyFg-30" value="" style="rounded=0;whiteSpace=wrap;html=1;" parent="1" vertex="1">
          <mxGeometry x="312" y="1181" width="150" height="70" as="geometry" />
        </mxCell>
        <mxCell id="l_vwWviAztrHwJhMkyFg-32" value="Stage&lt;div&gt;&lt;font style=&quot;font-size: 8px;&quot;&gt;(shuffle)&lt;/font&gt;&lt;/div&gt;" style="text;html=1;align=center;verticalAlign=middle;whiteSpace=wrap;rounded=0;fontStyle=1;fillColor=#bac8d3;strokeColor=#23445d;" parent="1" vertex="1">
          <mxGeometry x="312" y="1181" width="150" height="30" as="geometry" />
        </mxCell>
        <mxCell id="l_vwWviAztrHwJhMkyFg-33" value="Task" style="rounded=0;whiteSpace=wrap;html=1;fillColor=#647687;fontColor=#ffffff;strokeColor=#314354;" parent="1" vertex="1">
          <mxGeometry x="312" y="1211" width="50" height="40" as="geometry" />
        </mxCell>
        <mxCell id="l_vwWviAztrHwJhMkyFg-34" value="Task" style="rounded=0;whiteSpace=wrap;html=1;fillColor=#647687;fontColor=#ffffff;strokeColor=#314354;" parent="1" vertex="1">
          <mxGeometry x="362" y="1211" width="50" height="40" as="geometry" />
        </mxCell>
        <mxCell id="l_vwWviAztrHwJhMkyFg-36" value="Task" style="rounded=0;whiteSpace=wrap;html=1;fillColor=#647687;strokeColor=#314354;fontColor=#FFFFFF;" parent="1" vertex="1">
          <mxGeometry x="412" y="1211" width="50" height="40" as="geometry" />
        </mxCell>
        <mxCell id="l_vwWviAztrHwJhMkyFg-37" value="" style="rounded=0;whiteSpace=wrap;html=1;" parent="1" vertex="1">
          <mxGeometry x="462" y="1181" width="150" height="70" as="geometry" />
        </mxCell>
        <mxCell id="l_vwWviAztrHwJhMkyFg-38" value="Stage&lt;div&gt;&lt;font style=&quot;font-size: 8px;&quot;&gt;(shuffle)&lt;/font&gt;&lt;/div&gt;" style="text;html=1;align=center;verticalAlign=middle;whiteSpace=wrap;rounded=0;fontStyle=1;fillColor=#bac8d3;strokeColor=#23445d;" parent="1" vertex="1">
          <mxGeometry x="462" y="1181" width="150" height="30" as="geometry" />
        </mxCell>
        <mxCell id="l_vwWviAztrHwJhMkyFg-39" value="Task" style="rounded=0;whiteSpace=wrap;html=1;fillColor=#647687;fontColor=#ffffff;strokeColor=#314354;" parent="1" vertex="1">
          <mxGeometry x="462" y="1211" width="50" height="40" as="geometry" />
        </mxCell>
        <mxCell id="l_vwWviAztrHwJhMkyFg-40" value="Task" style="rounded=0;whiteSpace=wrap;html=1;fillColor=#647687;fontColor=#ffffff;strokeColor=#314354;" parent="1" vertex="1">
          <mxGeometry x="512" y="1211" width="50" height="40" as="geometry" />
        </mxCell>
        <mxCell id="l_vwWviAztrHwJhMkyFg-41" value="Task" style="rounded=0;whiteSpace=wrap;html=1;fillColor=#647687;fontColor=#ffffff;strokeColor=#314354;" parent="1" vertex="1">
          <mxGeometry x="562" y="1211" width="50" height="40" as="geometry" />
        </mxCell>
        <mxCell id="l_vwWviAztrHwJhMkyFg-47" value="" style="rounded=0;whiteSpace=wrap;html=1;" parent="1" vertex="1">
          <mxGeometry x="612" y="1181" width="150" height="70" as="geometry" />
        </mxCell>
        <mxCell id="l_vwWviAztrHwJhMkyFg-48" value="Stage&lt;div&gt;&lt;font style=&quot;font-size: 8px;&quot;&gt;(shuffle)&lt;/font&gt;&lt;/div&gt;" style="text;html=1;align=center;verticalAlign=middle;whiteSpace=wrap;rounded=0;fontStyle=1;fillColor=#bac8d3;strokeColor=#23445d;" parent="1" vertex="1">
          <mxGeometry x="612" y="1181" width="150" height="30" as="geometry" />
        </mxCell>
        <mxCell id="l_vwWviAztrHwJhMkyFg-49" value="Task" style="rounded=0;whiteSpace=wrap;html=1;fillColor=#647687;fontColor=#ffffff;strokeColor=#314354;" parent="1" vertex="1">
          <mxGeometry x="612" y="1211" width="50" height="40" as="geometry" />
        </mxCell>
        <mxCell id="l_vwWviAztrHwJhMkyFg-50" value="Task" style="rounded=0;whiteSpace=wrap;html=1;fillColor=#647687;fontColor=#ffffff;strokeColor=#314354;" parent="1" vertex="1">
          <mxGeometry x="662" y="1211" width="50" height="40" as="geometry" />
        </mxCell>
        <mxCell id="l_vwWviAztrHwJhMkyFg-51" value="Task" style="rounded=0;whiteSpace=wrap;html=1;fillColor=#647687;fontColor=#ffffff;strokeColor=#314354;" parent="1" vertex="1">
          <mxGeometry x="712" y="1211" width="50" height="40" as="geometry" />
        </mxCell>
        <mxCell id="l_vwWviAztrHwJhMkyFg-56" value="&lt;font style=&quot;font-size: 16px;&quot;&gt;Task&lt;/font&gt;" style="rounded=0;whiteSpace=wrap;html=1;fillColor=#647687;strokeColor=#314354;fontColor=#ffffff;shadow=1;strokeWidth=1;" parent="1" vertex="1">
          <mxGeometry x="453" y="668" width="100" height="50" as="geometry" />
        </mxCell>
        <mxCell id="l_vwWviAztrHwJhMkyFg-57" value="&lt;font style=&quot;font-size: 16px;&quot;&gt;Task&lt;/font&gt;" style="rounded=0;whiteSpace=wrap;html=1;fillColor=#647687;strokeColor=#314354;fontColor=#ffffff;shadow=1;strokeWidth=1;" parent="1" vertex="1">
          <mxGeometry x="569" y="668" width="100" height="50" as="geometry" />
        </mxCell>
        <mxCell id="l_vwWviAztrHwJhMkyFg-62" value="" style="rounded=1;whiteSpace=wrap;html=1;" parent="1" vertex="1">
          <mxGeometry x="780" y="404" width="320" height="380" as="geometry" />
        </mxCell>
        <mxCell id="l_vwWviAztrHwJhMkyFg-63" value="" style="rounded=0;whiteSpace=wrap;html=1;fillColor=#f5f5f5;strokeColor=#666666;gradientColor=#b3b3b3;shadow=1;" parent="1" vertex="1">
          <mxGeometry x="822" y="464" width="260" height="255" as="geometry" />
        </mxCell>
        <mxCell id="l_vwWviAztrHwJhMkyFg-64" value="" style="rounded=0;whiteSpace=wrap;html=1;fillColor=#f5f5f5;strokeColor=#666666;gradientColor=#b3b3b3;shadow=1;" parent="1" vertex="1">
          <mxGeometry x="812" y="474" width="260" height="255" as="geometry" />
        </mxCell>
        <mxCell id="l_vwWviAztrHwJhMkyFg-65" value="&lt;font style=&quot;font-size: 18px;&quot;&gt;&lt;b&gt;Worker Node&lt;/b&gt;&lt;/font&gt;" style="text;html=1;align=left;verticalAlign=middle;whiteSpace=wrap;rounded=0;shadow=1;" parent="1" vertex="1">
          <mxGeometry x="882" y="410" width="120" height="40" as="geometry" />
        </mxCell>
        <mxCell id="l_vwWviAztrHwJhMkyFg-66" value="" style="rounded=0;whiteSpace=wrap;html=1;fillColor=#f5f5f5;strokeColor=#666666;gradientColor=#b3b3b3;shadow=1;" parent="1" vertex="1">
          <mxGeometry x="800" y="484" width="260" height="255" as="geometry" />
        </mxCell>
        <mxCell id="l_vwWviAztrHwJhMkyFg-67" value="&lt;font style=&quot;font-size: 17px;&quot;&gt;&lt;b&gt;Executor&lt;/b&gt;&lt;/font&gt;" style="text;html=1;align=center;verticalAlign=middle;whiteSpace=wrap;rounded=0;shadow=1;" parent="1" vertex="1">
          <mxGeometry x="855" y="499" width="150" height="30" as="geometry" />
        </mxCell>
        <mxCell id="l_vwWviAztrHwJhMkyFg-68" value="&lt;font style=&quot;font-size: 17px;&quot;&gt;Cache&lt;/font&gt;" style="rounded=0;whiteSpace=wrap;html=1;fillColor=#647687;strokeColor=#314354;fontColor=#ffffff;shadow=1;" parent="1" vertex="1">
          <mxGeometry x="824" y="540" width="216" height="45" as="geometry" />
        </mxCell>
        <mxCell id="l_vwWviAztrHwJhMkyFg-69" value="&lt;font style=&quot;font-size: 16px;&quot;&gt;Task&lt;/font&gt;" style="rounded=0;whiteSpace=wrap;html=1;fillColor=#647687;strokeColor=#314354;fontColor=#ffffff;shadow=1;" parent="1" vertex="1">
          <mxGeometry x="824" y="601" width="100" height="50" as="geometry" />
        </mxCell>
        <mxCell id="l_vwWviAztrHwJhMkyFg-70" value="&lt;font style=&quot;font-size: 16px;&quot;&gt;Task&lt;/font&gt;" style="rounded=0;whiteSpace=wrap;html=1;fillColor=#647687;strokeColor=#314354;fontColor=#ffffff;shadow=1;" parent="1" vertex="1">
          <mxGeometry x="940" y="601" width="100" height="50" as="geometry" />
        </mxCell>
        <mxCell id="l_vwWviAztrHwJhMkyFg-71" value="&lt;font style=&quot;font-size: 16px;&quot;&gt;Task&lt;/font&gt;" style="rounded=0;whiteSpace=wrap;html=1;fillColor=#647687;strokeColor=#314354;fontColor=#ffffff;shadow=1;" parent="1" vertex="1">
          <mxGeometry x="824" y="667" width="100" height="50" as="geometry" />
        </mxCell>
        <mxCell id="l_vwWviAztrHwJhMkyFg-72" value="&lt;font style=&quot;font-size: 16px;&quot;&gt;Task&lt;/font&gt;" style="rounded=0;whiteSpace=wrap;html=1;fillColor=#647687;strokeColor=#314354;fontColor=#ffffff;shadow=1;" parent="1" vertex="1">
          <mxGeometry x="940" y="667" width="100" height="50" as="geometry" />
        </mxCell>
        <mxCell id="l_vwWviAztrHwJhMkyFg-73" value="" style="rounded=1;whiteSpace=wrap;html=1;" parent="1" vertex="1">
          <mxGeometry x="30" y="402.5" width="320" height="380" as="geometry" />
        </mxCell>
        <mxCell id="l_vwWviAztrHwJhMkyFg-74" value="" style="rounded=0;whiteSpace=wrap;html=1;fillColor=#f5f5f5;strokeColor=#666666;gradientColor=#b3b3b3;shadow=1;" parent="1" vertex="1">
          <mxGeometry x="72" y="462.5" width="260" height="255" as="geometry" />
        </mxCell>
        <mxCell id="l_vwWviAztrHwJhMkyFg-75" value="" style="rounded=0;whiteSpace=wrap;html=1;fillColor=#f5f5f5;strokeColor=#666666;gradientColor=#b3b3b3;shadow=1;" parent="1" vertex="1">
          <mxGeometry x="62" y="472.5" width="260" height="255" as="geometry" />
        </mxCell>
        <mxCell id="l_vwWviAztrHwJhMkyFg-76" value="&lt;font style=&quot;font-size: 18px;&quot;&gt;&lt;b&gt;Worker Node&lt;/b&gt;&lt;/font&gt;" style="text;html=1;align=left;verticalAlign=middle;whiteSpace=wrap;rounded=0;shadow=1;" parent="1" vertex="1">
          <mxGeometry x="132" y="408.5" width="120" height="40" as="geometry" />
        </mxCell>
        <mxCell id="l_vwWviAztrHwJhMkyFg-77" value="" style="rounded=0;whiteSpace=wrap;html=1;fillColor=#f5f5f5;strokeColor=#666666;gradientColor=#b3b3b3;shadow=1;" parent="1" vertex="1">
          <mxGeometry x="50" y="482.5" width="260" height="255" as="geometry" />
        </mxCell>
        <mxCell id="l_vwWviAztrHwJhMkyFg-78" value="&lt;font style=&quot;font-size: 17px;&quot;&gt;&lt;b&gt;Executor&lt;/b&gt;&lt;/font&gt;" style="text;html=1;align=center;verticalAlign=middle;whiteSpace=wrap;rounded=0;shadow=1;" parent="1" vertex="1">
          <mxGeometry x="105" y="497.5" width="150" height="30" as="geometry" />
        </mxCell>
        <mxCell id="l_vwWviAztrHwJhMkyFg-79" value="&lt;font style=&quot;font-size: 17px;&quot;&gt;Cache&lt;/font&gt;" style="rounded=0;whiteSpace=wrap;html=1;fillColor=#647687;strokeColor=#314354;fontColor=#ffffff;shadow=1;" parent="1" vertex="1">
          <mxGeometry x="74" y="538.5" width="216" height="45" as="geometry" />
        </mxCell>
        <mxCell id="l_vwWviAztrHwJhMkyFg-80" value="&lt;font style=&quot;font-size: 16px;&quot;&gt;Task&lt;/font&gt;" style="rounded=0;whiteSpace=wrap;html=1;fillColor=#647687;strokeColor=#314354;fontColor=#ffffff;shadow=1;" parent="1" vertex="1">
          <mxGeometry x="74" y="599.5" width="100" height="50" as="geometry" />
        </mxCell>
        <mxCell id="l_vwWviAztrHwJhMkyFg-81" value="&lt;font style=&quot;font-size: 16px;&quot;&gt;Task&lt;/font&gt;" style="rounded=0;whiteSpace=wrap;html=1;fillColor=#647687;strokeColor=#314354;fontColor=#ffffff;shadow=1;" parent="1" vertex="1">
          <mxGeometry x="190" y="599.5" width="100" height="50" as="geometry" />
        </mxCell>
        <mxCell id="l_vwWviAztrHwJhMkyFg-82" value="&lt;font style=&quot;font-size: 16px;&quot;&gt;Task&lt;/font&gt;" style="rounded=0;whiteSpace=wrap;html=1;fillColor=#647687;strokeColor=#314354;fontColor=#ffffff;shadow=1;" parent="1" vertex="1">
          <mxGeometry x="74" y="665.5" width="100" height="50" as="geometry" />
        </mxCell>
        <mxCell id="l_vwWviAztrHwJhMkyFg-83" value="&lt;font style=&quot;font-size: 16px;&quot;&gt;Task&lt;/font&gt;" style="rounded=0;whiteSpace=wrap;html=1;fillColor=#647687;strokeColor=#314354;fontColor=#ffffff;shadow=1;" parent="1" vertex="1">
          <mxGeometry x="190" y="665.5" width="100" height="50" as="geometry" />
        </mxCell>
        <mxCell id="l_vwWviAztrHwJhMkyFg-84" value="" style="endArrow=classic;startArrow=classic;html=1;rounded=0;entryX=0.5;entryY=1;entryDx=0;entryDy=0;exitX=0.5;exitY=0;exitDx=0;exitDy=0;strokeWidth=2;" parent="1" source="l_vwWviAztrHwJhMkyFg-4" target="l_vwWviAztrHwJhMkyFg-1" edge="1">
          <mxGeometry width="50" height="50" relative="1" as="geometry">
            <mxPoint x="410" y="230" as="sourcePoint" />
            <mxPoint x="548" y="250" as="targetPoint" />
          </mxGeometry>
        </mxCell>
        <mxCell id="l_vwWviAztrHwJhMkyFg-85" value="" style="endArrow=none;html=1;rounded=0;exitX=0.5;exitY=0;exitDx=0;exitDy=0;entryX=0.5;entryY=1;entryDx=0;entryDy=0;edgeStyle=orthogonalEdgeStyle;strokeWidth=2;strokeColor=default;shadow=1;" parent="1" source="l_vwWviAztrHwJhMkyFg-73" target="l_vwWviAztrHwJhMkyFg-4" edge="1">
          <mxGeometry width="50" height="50" relative="1" as="geometry">
            <mxPoint x="500" y="300" as="sourcePoint" />
            <mxPoint x="550" y="250" as="targetPoint" />
          </mxGeometry>
        </mxCell>
        <mxCell id="l_vwWviAztrHwJhMkyFg-86" value="" style="endArrow=none;html=1;rounded=0;entryX=0.5;entryY=1;entryDx=0;entryDy=0;exitX=0.5;exitY=0;exitDx=0;exitDy=0;edgeStyle=orthogonalEdgeStyle;strokeWidth=2;" parent="1" source="l_vwWviAztrHwJhMkyFg-62" target="l_vwWviAztrHwJhMkyFg-4" edge="1">
          <mxGeometry width="50" height="50" relative="1" as="geometry">
            <mxPoint x="710" y="375" as="sourcePoint" />
            <mxPoint x="760" y="325" as="targetPoint" />
          </mxGeometry>
        </mxCell>
        <mxCell id="l_vwWviAztrHwJhMkyFg-87" value="" style="endArrow=none;html=1;rounded=0;entryX=0.5;entryY=1;entryDx=0;entryDy=0;exitX=0.5;exitY=0;exitDx=0;exitDy=0;strokeWidth=2;" parent="1" source="l_vwWviAztrHwJhMkyFg-61" target="l_vwWviAztrHwJhMkyFg-4" edge="1">
          <mxGeometry width="50" height="50" relative="1" as="geometry">
            <mxPoint x="695" y="370" as="sourcePoint" />
            <mxPoint x="745" y="320" as="targetPoint" />
          </mxGeometry>
        </mxCell>
        <mxCell id="l_vwWviAztrHwJhMkyFg-88" value="&lt;font style=&quot;font-size: 14px;&quot;&gt;Slots / Cores&lt;/font&gt;" style="rounded=0;whiteSpace=wrap;html=1;fillColor=#f5f5f5;strokeColor=#666666;gradientColor=#b3b3b3;" parent="1" vertex="1">
          <mxGeometry x="312" y="850" width="120" height="60" as="geometry" />
        </mxCell>
        <mxCell id="l_vwWviAztrHwJhMkyFg-89" value="&lt;font style=&quot;font-size: 14px;&quot;&gt;Slots / Cores&lt;/font&gt;" style="rounded=0;whiteSpace=wrap;html=1;fillColor=#f5f5f5;strokeColor=#666666;gradientColor=#b3b3b3;" parent="1" vertex="1">
          <mxGeometry x="689" y="850" width="120" height="60" as="geometry" />
        </mxCell>
        <mxCell id="l_vwWviAztrHwJhMkyFg-90" value="" style="endArrow=classic;html=1;rounded=0;exitX=0.25;exitY=0;exitDx=0;exitDy=0;entryX=0.5;entryY=1;entryDx=0;entryDy=0;strokeWidth=2;" parent="1" source="l_vwWviAztrHwJhMkyFg-88" target="l_vwWviAztrHwJhMkyFg-83" edge="1">
          <mxGeometry width="50" height="50" relative="1" as="geometry">
            <mxPoint x="530" y="890" as="sourcePoint" />
            <mxPoint x="580" y="840" as="targetPoint" />
          </mxGeometry>
        </mxCell>
        <mxCell id="l_vwWviAztrHwJhMkyFg-91" value="" style="endArrow=classic;html=1;rounded=0;exitX=0.75;exitY=0;exitDx=0;exitDy=0;entryX=0.5;entryY=1;entryDx=0;entryDy=0;strokeWidth=2;" parent="1" source="l_vwWviAztrHwJhMkyFg-88" target="l_vwWviAztrHwJhMkyFg-56" edge="1">
          <mxGeometry width="50" height="50" relative="1" as="geometry">
            <mxPoint x="530" y="890" as="sourcePoint" />
            <mxPoint x="580" y="840" as="targetPoint" />
          </mxGeometry>
        </mxCell>
        <mxCell id="l_vwWviAztrHwJhMkyFg-92" value="" style="endArrow=classic;html=1;rounded=0;exitX=0.75;exitY=0;exitDx=0;exitDy=0;entryX=0.5;entryY=1;entryDx=0;entryDy=0;strokeWidth=2;" parent="1" source="l_vwWviAztrHwJhMkyFg-89" target="l_vwWviAztrHwJhMkyFg-71" edge="1">
          <mxGeometry width="50" height="50" relative="1" as="geometry">
            <mxPoint x="530" y="890" as="sourcePoint" />
            <mxPoint x="580" y="840" as="targetPoint" />
          </mxGeometry>
        </mxCell>
        <mxCell id="l_vwWviAztrHwJhMkyFg-93" value="" style="endArrow=classic;html=1;rounded=0;exitX=0.25;exitY=0;exitDx=0;exitDy=0;entryX=0.437;entryY=0.993;entryDx=0;entryDy=0;entryPerimeter=0;strokeWidth=2;" parent="1" source="l_vwWviAztrHwJhMkyFg-89" target="l_vwWviAztrHwJhMkyFg-57" edge="1">
          <mxGeometry width="50" height="50" relative="1" as="geometry">
            <mxPoint x="530" y="890" as="sourcePoint" />
            <mxPoint x="580" y="840" as="targetPoint" />
          </mxGeometry>
        </mxCell>
      </root>
    </mxGraphModel>
  </diagram>
</mxfile>
